<?xml version="1.0" standalone="no"?>
<!DOCTYPE svg PUBLIC "-//W3C//DTD SVG 20010904//EN"
 "http://www.w3.org/TR/2001/REC-SVG-20010904/DTD/svg10.dtd">
<svg version="1.0" xmlns="http://www.w3.org/2000/svg"
 width="952.000000pt" height="114.000000pt" viewBox="0 0 952.000000 114.000000"
 preserveAspectRatio="xMidYMid meet">

<g transform="translate(0.000000,114.000000) scale(0.100000,-0.100000)"
fill="#000000" stroke="none">
<path d="M80 710 l0 -349 70 0 70 0 0 140 0 139 33 1 c17 0 67 1 110 2 l77 2
0 -143 0 -143 68 3 67 3 2 348 2 347 -69 0 -70 0 0 -140 0 -140 -110 0 -110 0
0 140 0 140 -70 0 -70 0 0 -350z"/>
<path d="M650 711 l0 -350 250 0 250 0 0 70 0 69 -180 0 -180 0 0 70 0 70 38
1 c20 0 69 1 107 2 l70 2 3 68 3 67 -111 0 -110 0 0 70 0 70 38 1 c20 0 101 0
180 0 l142 -1 0 70 0 70 -250 0 -250 0 0 -349z"/>
<path d="M1223 713 l2 -348 68 -3 67 -3 0 213 0 213 40 0 40 0 0 -74 0 -73 35
4 35 4 0 -73 0 -73 35 0 35 0 0 -69 0 -70 140 0 140 0 0 350 0 349 -70 0 -70
0 0 -280 0 -280 -37 0 -38 0 3 70 4 70 -39 0 -38 0 3 70 4 70 -39 0 -38 0 3
70 4 70 -39 0 -38 0 3 70 4 70 -111 0 -110 0 2 -347z"/>
<path d="M1940 710 l0 -350 68 3 67 2 2 134 c2 74 4 136 7 138 2 2 50 5 107 6
l104 2 0 -140 0 -140 68 -3 67 -3 0 141 0 140 -35 0 -35 0 0 70 0 70 35 0 35
0 0 70 0 70 -35 0 -35 0 0 70 0 70 -210 0 -210 0 0 -350z m355 143 l0 -73
-110 0 -110 0 3 69 4 70 31 3 c18 2 66 3 107 3 l75 0 0 -72z"/>
<path d="M2510 710 l0 -350 68 3 67 2 2 348 2 347 -69 0 -70 0 0 -350z"/>
<path d="M2792 990 l3 -70 -37 0 -38 0 0 -211 0 -211 38 3 37 4 0 -70 0 -70
108 0 107 0 0 -32 0 -33 70 0 70 0 0 29 c0 26 4 30 33 33 l32 3 0 70 0 70 38
-4 37 -3 0 211 0 211 -37 0 -38 0 3 70 4 70 -217 0 -217 0 4 -70z m326 -69
l32 -1 0 -210 0 -210 -145 0 -145 0 0 209 0 210 38 3 c20 2 71 2 112 1 41 -1
90 -2 108 -2z"/>
<path d="M2940 545 l0 -35 70 0 70 0 0 35 0 35 -70 0 -70 0 0 -35z"/>
<path d="M3363 783 l2 -278 32 -3 32 -3 3 -67 3 -67 213 -2 212 -3 0 73 0 73
35 -4 35 -4 0 281 0 281 -70 0 -70 0 0 -280 0 -280 -145 0 -145 0 0 280 0 280
-70 0 -69 0 2 -277z"/>
<path d="M4010 711 l0 -349 245 -1 245 0 0 69 0 70 -177 0 -178 0 0 73 0 72
108 -2 107 -3 0 70 0 70 -107 0 -108 0 0 73 0 72 178 -2 177 -3 0 70 0 70
-245 0 -245 0 0 -349z"/>
<path d="M4860 710 l0 -349 70 0 70 0 0 209 0 208 40 4 40 4 0 -74 0 -74 35 4
35 4 0 -73 0 -73 68 3 67 2 0 70 0 70 38 -4 37 -3 0 70 0 70 38 3 37 4 0 -210
0 -210 68 -3 67 -3 0 351 0 350 -105 0 -105 0 0 -70 0 -70 -35 0 -35 0 0 -70
0 -70 -72 0 -73 0 3 70 4 70 -41 0 -41 0 0 70 0 70 -105 0 -105 0 0 -350z"/>
<path d="M5650 710 l0 -349 248 2 247 2 3 68 3 67 -183 0 -183 0 3 70 4 70 31
1 c18 0 65 0 105 -1 l72 -1 0 70 0 71 -107 0 -108 0 3 70 c4 68 4 70 30 70 15
1 95 2 177 3 l150 2 3 68 3 67 -251 0 -250 0 0 -350z"/>
<path d="M6220 710 l0 -349 210 0 210 0 0 72 0 72 37 0 38 0 2 208 3 207 -40
0 -40 0 0 70 0 70 -210 0 -210 0 0 -350z m347 207 c2 -2 4 -97 6 -210 l2 -207
-110 0 -110 0 0 213 0 212 104 -2 c57 -1 105 -4 108 -6z"/>
<path d="M6790 710 l0 -349 248 2 247 2 3 68 3 67 -181 0 -180 0 0 70 0 70 38
1 c20 0 67 0 105 -1 l67 -1 0 70 0 71 -105 0 -105 0 0 70 0 70 33 0 c17 1 97
2 177 3 l145 2 3 68 3 67 -251 0 -250 0 0 -350z"/>
<path d="M7360 711 l0 -350 70 0 70 0 0 349 0 350 -70 0 -70 0 0 -349z"/>
<path d="M7573 713 l2 -348 68 -3 67 -3 0 143 0 143 110 0 110 0 0 -142 0
-143 70 0 70 0 0 140 0 140 -35 0 -35 0 0 70 0 70 35 0 35 0 0 70 0 70 -35 0
-35 0 0 70 0 70 -215 0 -214 0 2 -347z m357 140 l0 -73 -110 0 -110 0 0 73 0
72 110 0 110 0 0 -72z"/>
<path d="M8220 990 l0 -70 -40 0 -40 0 3 -207 2 -208 38 0 37 0 0 -72 0 -71
210 0 210 0 0 69 0 69 35 0 35 0 0 210 0 210 -35 0 -35 0 0 70 0 70 -210 0
-210 0 0 -70z m355 -277 l0 -213 -145 0 -145 0 0 213 0 212 145 0 145 0 0
-212z"/>
<path d="M8790 850 l0 -209 178 2 177 2 0 -72 0 -73 -177 0 -178 0 0 -69 0
-70 245 0 245 0 0 209 0 210 -177 0 -178 0 3 70 4 70 31 1 c18 0 96 0 175 0
l142 -1 0 70 0 70 -245 0 -245 0 0 -210z"/>
</g>
</svg>
