<?xml version="1.0" standalone="no"?>
<!DOCTYPE svg PUBLIC "-//W3C//DTD SVG 20010904//EN"
 "http://www.w3.org/TR/2001/REC-SVG-20010904/DTD/svg10.dtd">
<svg version="1.0" xmlns="http://www.w3.org/2000/svg"
 width="952.000000pt" height="114.000000pt" viewBox="0 0 952.000000 114.000000"
 preserveAspectRatio="xMidYMid meet">

<g transform="translate(0.000000,114.000000) scale(0.100000,-0.100000)"
fill="#000000" stroke="none">
<path d="M0 570 l0 -570 4760 0 4760 0 0 570 0 570 -4760 0 -4760 0 0 -570z
m220 350 l0 -140 110 0 110 0 0 140 0 140 70 0 70 0 0 -350 0 -350 -70 0 -70
0 0 140 0 140 -110 0 -110 0 0 -140 0 -140 -70 0 -70 0 0 350 0 350 70 0 70 0
0 -140z m930 70 l0 -70 -180 0 -180 0 0 -70 0 -70 110 0 110 0 0 -70 0 -70
-110 0 -110 0 0 -70 0 -70 180 0 180 0 0 -70 0 -70 -250 0 -250 0 0 350 0 350
250 0 250 0 0 -70z m288 0 l-3 -70 38 0 39 0 -4 -70 -3 -70 38 0 37 0 0 -70 0
-70 35 0 35 0 0 -70 0 -70 35 0 35 0 0 280 0 280 70 0 70 0 0 -350 0 -350
-140 0 -140 0 0 70 0 70 -35 0 -35 0 0 69 0 70 -37 3 -38 3 -3 68 -3 67 -34 0
-35 0 0 -210 0 -211 -67 3 -68 3 -2 348 -2 347 110 0 111 0 -4 -70z m922 0 l0
-70 35 0 35 0 0 -70 0 -70 -35 0 -35 0 0 -70 0 -70 35 0 35 0 0 -140 0 -141
-67 3 -68 3 -2 70 c-1 39 -2 100 -2 138 l-1 67 -105 0 -105 0 0 -140 0 -141
-72 3 -73 3 -2 348 -2 347 214 0 215 0 0 -70z m290 -280 l0 -351 -72 3 -73 3
-2 348 -2 347 74 0 75 0 0 -350z m570 280 l0 -70 35 0 35 0 0 -210 0 -210 -35
0 -35 0 0 -70 0 -70 -35 0 c-32 0 -35 -2 -35 -30 l0 -30 -75 0 -75 0 0 30 0
29 -102 3 -103 3 -3 68 -3 67 -34 0 -35 0 0 210 0 210 38 0 37 0 -3 70 -4 70
216 0 216 0 0 -70z m280 -210 l0 -280 145 0 145 0 0 280 0 280 70 0 70 0 0
-280 0 -280 -35 0 -35 0 0 -70 0 -70 -212 2 -213 3 -3 67 -3 67 -32 3 -32 3
-2 278 -2 277 69 0 70 0 0 -280z m1000 210 l0 -70 -174 0 -174 0 -4 -70 -3
-70 108 0 107 0 0 -70 0 -70 -104 0 -104 0 -4 -70 -3 -70 178 0 177 0 0 -70 0
-70 -247 2 -248 3 -2 348 -2 347 249 0 250 0 0 -70z m570 0 l0 -70 41 0 41 0
-4 -70 -3 -70 73 0 72 0 0 70 0 70 35 0 35 0 0 70 0 70 105 0 105 0 0 -350 0
-351 -67 3 -68 3 -2 140 c-1 77 -2 170 -3 208 l0 67 -35 0 -35 0 0 -70 0 -70
-35 0 -35 0 0 -70 0 -71 -72 3 -73 3 -3 67 -3 67 -32 3 -32 3 -3 68 -3 67 -34
0 -35 0 0 -210 0 -210 -70 0 -70 0 0 350 0 350 105 0 105 0 0 -70z m1078 3
l-3 -68 -177 -3 -178 -2 0 -70 0 -70 105 0 105 0 0 -70 0 -70 -105 0 -105 0 0
-70 0 -70 180 0 181 0 -3 -67 -3 -68 -250 0 -250 0 -2 348 -2 347 255 0 255 0
-3 -67z m492 -3 l0 -70 40 0 40 0 -3 -207 -2 -208 -37 -3 -38 -3 0 -70 0 -69
-210 0 -210 0 0 350 0 350 210 0 210 0 0 -70z m648 3 l-3 -68 -177 -3 -178 -2
0 -70 0 -70 105 0 105 0 0 -70 0 -70 -105 0 -105 0 0 -70 0 -70 180 0 181 0
-3 -67 -3 -68 -247 -3 -248 -2 0 350 0 350 250 0 251 0 -3 -67z m212 -283 l0
-350 -70 0 -70 0 0 350 0 350 70 0 70 0 0 -350z m500 280 l0 -70 35 0 35 0 0
-70 0 -70 -35 0 -35 0 0 -70 0 -70 35 0 35 0 0 -140 0 -140 -70 0 -70 0 0 140
0 140 -110 0 -110 0 0 -140 0 -141 -67 3 -68 3 -2 348 -2 347 214 0 215 0 0
-70z m640 0 l0 -70 35 0 35 0 0 -210 0 -210 -35 0 -35 0 0 -70 0 -70 -212 2
-213 3 -3 67 -3 67 -32 3 -32 3 -2 208 -3 207 38 0 37 0 -3 70 -4 70 216 0
216 0 0 -70z m640 0 l0 -70 -175 0 -175 0 0 -70 0 -70 175 0 175 0 0 -210 0
-210 -247 2 -248 3 -3 68 -3 67 183 0 183 0 -3 70 -4 70 -176 2 -177 3 -2 208
-3 207 250 0 250 0 0 -70z"/>
<path d="M2080 850 l0 -70 108 0 107 0 -3 70 -4 70 -104 0 -104 0 0 -70z"/>
<path d="M2860 710 l0 -210 145 0 145 0 0 210 0 210 -145 0 -145 0 0 -210z
m220 -165 l0 -35 -75 0 -75 0 0 28 c0 16 3 32 7 35 3 4 37 7 75 7 l68 0 0 -35z"/>
<path d="M6360 710 l0 -210 108 0 107 0 -2 147 c-1 82 -2 176 -3 211 l0 62
-105 0 -105 0 0 -210z"/>
<path d="M7710 850 l0 -70 110 0 110 0 0 70 0 70 -110 0 -110 0 0 -70z"/>
<path d="M8290 858 c-1 -35 -2 -129 -3 -211 l-2 -147 145 0 145 0 -2 147 c-1
82 -2 176 -3 211 l0 62 -140 0 -140 0 0 -62z"/>
</g>
</svg>
